<?xml version="1.0" standalone="no"?>
<!DOCTYPE svg PUBLIC "-//W3C//DTD SVG 20010904//EN"
 "http://www.w3.org/TR/2001/REC-SVG-20010904/DTD/svg10.dtd">
<svg version="1.0" xmlns="http://www.w3.org/2000/svg"
 width="500.000000pt" height="500.000000pt" viewBox="0 0 500.000000 500.000000"
 preserveAspectRatio="xMidYMid meet">

<g transform="translate(0.000000,500.000000) scale(0.100000,-0.100000)"
fill="#000000" stroke="none">
<path d="M0 2500 l0 -2500 2500 0 2500 0 0 2500 0 2500 -2500 0 -2500 0 0
-2500z m1939 386 c19 -20 26 -38 29 -83 7 -100 -29 -146 -111 -145 -34 1 -47
7 -69 32 -24 26 -28 39 -28 90 0 32 6 71 12 86 26 56 119 67 167 20z m870 23
c42 -15 61 -55 61 -128 0 -52 -4 -65 -27 -91 -23 -25 -36 -31 -70 -32 -82 -1
-118 45 -111 144 7 95 63 136 147 107z m618 -11 c68 -56 50 -209 -26 -234 -42
-13 -100 -2 -118 23 -33 45 -39 135 -11 186 22 42 116 57 155 25z m-1726 -6
c18 -15 22 -29 22 -67 0 -61 -25 -85 -89 -85 l-44 0 0 -40 c0 -36 -2 -40 -25
-40 l-25 0 0 125 0 125 69 0 c52 0 74 -5 92 -18z m479 -2 c29 -29 27 -86 -4
-113 l-24 -21 29 -42 c16 -24 29 -45 29 -48 0 -3 -12 -6 -27 -6 -22 0 -35 11
-61 50 -17 28 -37 50 -42 50 -6 0 -10 -22 -10 -50 0 -49 -1 -50 -30 -50 l-30
0 0 125 0 125 75 0 c62 0 79 -4 95 -20z m258 -2 c-2 -19 -10 -24 -40 -26 l-38
-3 0 -100 c0 -99 0 -99 -25 -99 l-25 0 0 100 0 100 -40 0 c-36 0 -40 3 -40 25
l0 25 106 0 c104 0 105 0 102 -22z m190 0 c-3 -20 -10 -23 -55 -26 -49 -3 -53
-5 -53 -28 0 -22 4 -24 45 -24 38 0 45 -3 45 -20 0 -17 -7 -20 -45 -20 l-45 0
0 -55 c0 -52 -1 -55 -25 -55 l-25 0 0 125 0 125 81 0 c78 0 80 -1 77 -22z
m342 -78 l0 -100 50 0 c47 0 50 -2 50 -25 0 -24 -2 -25 -75 -25 l-75 0 0 125
0 125 25 0 25 0 0 -100z m250 80 c0 -13 -7 -20 -20 -20 -18 0 -20 -7 -20 -85
0 -78 2 -85 20 -85 13 0 20 -7 20 -20 0 -18 -7 -20 -60 -20 -53 0 -60 2 -60
20 0 11 7 20 15 20 12 0 15 16 15 85 0 69 -3 85 -15 85 -8 0 -15 9 -15 20 0
18 7 20 60 20 53 0 60 -2 60 -20z"/>
<path d="M1826 2854 c-21 -20 -21 -102 0 -132 35 -51 94 -12 94 63 0 72 -53
111 -94 69z"/>
<path d="M2726 2848 c-9 -12 -16 -41 -16 -63 0 -73 53 -111 93 -67 22 25 23
115 1 136 -22 23 -60 20 -78 -6z"/>
<path d="M3320 2851 c-16 -31 -12 -117 6 -135 20 -21 58 -20 75 0 17 21 18
116 0 137 -19 23 -68 22 -81 -2z"/>
<path d="M1597 2863 c-4 -3 -7 -21 -7 -40 0 -37 16 -49 55 -39 49 12 25 86
-28 86 -7 0 -17 -3 -20 -7z"/>
<path d="M2070 2834 c0 -34 1 -35 31 -32 63 6 61 68 -2 68 -27 0 -29 -3 -29
-36z"/>
</g>
</svg>
